<svg width="279" height="260" viewBox="0 0 279 260" fill="none" xmlns="http://www.w3.org/2000/svg">
<g clip-path="url(#clip0_121_65)">
<path id="isotipo" d="M205.503 204C186.537 204 175.959 194.199 174.042 174.853C173.648 170.873 173.471 162.683 173.254 152.313C172.859 134.267 172.329 109.547 170.29 102.115C166.877 89.6738 163.764 83.5547 155.226 82.3905C149.543 81.6188 144.023 85.0845 138.693 88.4418C134.751 90.9193 131.025 93.2613 127.055 93.9517C110.659 96.7676 103.929 85.9644 101.387 81.9031C97.24 75.2561 94.0043 57.1968 90.8636 23.3254C90.8229 22.8922 90.7821 22.4048 90.7549 21.8768C90.1295 13.497 88.634 11.2091 83.7531 11.2091C75.854 11.2091 73.2844 18.0863 73.0125 18.8715L14.8502 200.155C13.9121 203.066 10.7986 204.677 7.87557 203.743C4.95249 202.809 3.3482 199.708 4.27271 196.798L62.4351 15.4735C64.1209 10.1802 70.742 0.162322 83.7395 0.162322C100.272 0.162322 101.427 15.9067 101.822 21.0781C101.849 21.5249 101.89 21.9445 101.917 22.3236C105.465 60.6489 108.715 72.711 110.822 76.0819C114.275 81.6188 117.579 84.367 125.166 83.0674C126.947 82.756 129.897 80.9013 132.738 79.1143C139.101 75.1072 147.014 70.1388 156.708 71.452C172.696 73.618 177.468 86.357 180.989 99.2179C183.206 107.313 183.79 127.079 184.334 152.083C184.538 161.816 184.728 170.21 185.082 173.77C186.251 185.629 190.425 193.427 206.916 192.912C225.352 192.344 239.301 180.945 241.626 164.551C244.005 147.764 232.966 133.428 224.904 122.95L224.781 122.801C210.411 104.132 203.164 94.1683 195.686 71.8717C188.943 51.7817 190.928 33.6411 201.573 17.9374C210.003 5.55034 223.367 -0.812395 239.206 0.0810953C254.569 0.933972 269.062 8.69109 274.446 18.9391C280.252 29.9859 281.761 48.9794 271.374 64.5884C268.777 68.5008 258.798 80.8201 239.546 75.3373C223.857 70.8699 219.343 60.9603 218.051 55.4504C215.4 44.2276 220.784 33.1402 226.889 27.5898C231.511 23.3931 236.895 21.8904 241.667 23.4743C244.576 24.4355 246.154 27.5762 245.175 30.4733C244.209 33.3704 241.055 34.9407 238.146 33.966C237.48 33.7494 236.052 34.2097 234.366 35.753C230.546 39.2187 227.324 46.4207 228.846 52.9188C230.165 58.5099 234.788 62.4765 242.592 64.7102C253.264 67.7562 259.083 63.0045 262.101 58.4829C270.544 45.8115 268.219 30.9607 264.589 24.0699C261.571 18.33 251.429 11.8454 238.567 11.1279C231.742 10.7488 219.057 11.9266 210.764 24.1512C202.022 37.0256 200.54 51.4974 206.209 68.3789C213.143 89.0375 219.615 97.9318 233.591 116.086L233.714 116.235C242.456 127.579 255.657 144.732 252.625 166.108C249.525 188.012 231.294 203.228 207.256 203.973C206.658 203.986 206.074 204 205.489 204H205.503Z" fill="#FFFAE6"/>
</g>
<path id="texto1" d="M11.1295 252H3.00952V231.28H10.8495C16.9255 231.28 21.1535 235.536 21.1535 241.696C21.1535 247.744 17.0375 252 11.1295 252ZM10.4015 235.48H7.54552V247.8H10.6815C14.2655 247.8 16.3655 245.532 16.3655 241.696C16.3655 237.776 14.1535 235.48 10.4015 235.48ZM28.8463 231.28V252H24.3103V231.28H28.8463ZM32.0217 237.3C32.0217 233.548 35.1857 230.888 39.6377 230.888C44.0897 230.888 46.8897 233.352 46.8897 237.272H42.3817C42.3817 235.816 41.2897 234.92 39.5817 234.92C37.7337 234.92 36.5577 235.76 36.5577 237.132C36.5577 238.392 37.2017 239.008 38.6577 239.316L41.7657 239.96C45.4617 240.716 47.2257 242.48 47.2257 245.756C47.2257 249.76 44.0897 252.364 39.3297 252.364C34.7097 252.364 31.7137 249.872 31.7137 245.98H36.2217C36.2217 247.492 37.3417 248.332 39.3577 248.332C41.4017 248.332 42.6897 247.52 42.6897 246.204C42.6897 245.056 42.1577 244.468 40.7857 244.188L37.6217 243.544C33.9257 242.788 32.0217 240.688 32.0217 237.3ZM63.3922 252H50.2322V231.28H63.3922V235.48H54.7682V239.54H62.4122V243.516H54.7682V247.8H63.3922V252ZM73.1793 229.768L70.7713 229.796C70.4353 227.052 71.6393 225.26 73.6833 225.26C75.7273 225.26 76.7913 226.996 77.9953 226.996C78.7233 226.996 79.0033 226.268 79.0033 225.26H81.4113C81.7193 228.34 80.4593 229.796 78.4713 229.796C76.3433 229.796 75.2233 228.06 74.1593 228.06C73.4313 228.06 73.1793 228.704 73.1793 229.768ZM71.5833 252H67.1033V231.28H71.5833L80.3193 244.468V231.28H84.7993V252H80.3193L71.5833 238.84V252ZM91.943 252H87.211L94.603 231.28H99.027L106.391 252H101.575L100.119 247.632H93.427L91.943 252ZM96.227 239.4L94.743 243.824H98.831L97.347 239.4C97.123 238.7 96.871 237.888 96.787 237.384C96.703 237.86 96.479 238.644 96.227 239.4ZM125.173 252.336C118.957 252.336 115.065 248.22 115.065 241.668C115.065 235.2 119.181 230.944 125.369 230.944C130.549 230.944 134.273 233.912 134.917 238.56H130.129C129.513 236.488 127.749 235.312 125.257 235.312C121.897 235.312 119.853 237.692 119.853 241.64C119.853 245.532 121.925 247.968 125.257 247.968C127.805 247.968 129.681 246.708 130.241 244.664H134.945C134.217 249.284 130.353 252.336 125.173 252.336ZM157.13 241.612C157.13 247.94 152.958 252.336 146.938 252.336C140.946 252.336 136.83 247.968 136.83 241.64C136.83 235.312 140.974 230.916 146.966 230.916C152.986 230.916 157.13 235.284 157.13 241.612ZM152.342 241.612C152.342 237.664 150.326 235.284 146.994 235.284C143.634 235.284 141.618 237.664 141.618 241.612C141.618 245.588 143.634 247.968 146.994 247.968C150.326 247.968 152.342 245.532 152.342 241.612ZM164.771 252H160.291V231.28H164.771L173.507 244.468V231.28H177.987V252H173.507L164.771 238.84V252Z" fill="#FFFAE6"/>
<path id="texto2" d="M209.78 231.555H212.042C212.912 231.555 213.753 231.545 214.565 231.526C215.377 231.507 216.092 231.487 216.711 231.468L216.566 232.048C215.908 232.067 215.396 232.145 215.029 232.28C214.661 232.396 214.371 232.628 214.159 232.976C213.965 233.305 213.772 233.827 213.579 234.542L209.751 248.926C209.577 249.622 209.499 250.144 209.519 250.492C209.557 250.84 209.731 251.072 210.041 251.188C210.35 251.304 210.824 251.381 211.462 251.42L211.346 252C210.727 251.961 210.012 251.942 209.2 251.942C208.407 251.923 207.576 251.913 206.706 251.913C205.778 251.913 204.888 251.923 204.038 251.942C203.206 251.942 202.549 251.961 202.066 252L202.182 251.42C202.858 251.381 203.371 251.304 203.719 251.188C204.086 251.072 204.376 250.84 204.589 250.492C204.801 250.144 204.995 249.622 205.169 248.926L209.374 233.295L197.339 252.145H196.701L194.352 234.339L190.698 248.259C190.543 248.878 190.466 249.419 190.466 249.883C190.485 250.347 190.669 250.714 191.017 250.985C191.384 251.236 192.003 251.381 192.873 251.42L192.757 252C192.525 251.981 192.215 251.971 191.829 251.971C191.442 251.952 191.036 251.942 190.611 251.942C190.205 251.923 189.837 251.913 189.509 251.913C189.006 251.913 188.503 251.923 188.001 251.942C187.498 251.942 187.082 251.961 186.754 252L186.899 251.42C187.575 251.381 188.107 251.236 188.494 250.985C188.9 250.714 189.219 250.347 189.451 249.883C189.683 249.419 189.876 248.878 190.031 248.259L193.714 234.542C193.907 233.827 193.984 233.305 193.946 232.976C193.907 232.628 193.733 232.396 193.424 232.28C193.134 232.145 192.66 232.067 192.003 232.048L192.148 231.468C192.592 231.487 193.163 231.507 193.859 231.526C194.574 231.545 195.328 231.555 196.121 231.555C196.585 231.555 197.049 231.545 197.513 231.526C197.977 231.507 198.383 231.487 198.731 231.468L200.384 246.287L209.78 231.555ZM216.304 247.853C215.705 248.684 215.396 249.361 215.376 249.883C215.357 250.386 215.57 250.763 216.014 251.014C216.459 251.246 217.058 251.381 217.812 251.42L217.667 252C216.855 251.961 216.15 251.942 215.55 251.942C214.97 251.923 214.419 251.913 213.897 251.913C213.453 251.913 213.085 251.923 212.795 251.942C212.505 251.942 212.206 251.961 211.896 252L212.012 251.42C212.36 251.323 212.689 251.169 212.998 250.956C213.288 250.743 213.627 250.424 214.013 249.999C214.381 249.574 214.806 249.023 215.289 248.346L227.382 231.323C227.634 231.342 227.885 231.352 228.136 231.352C228.407 231.352 228.649 231.342 228.861 231.323L230.021 249.564C230.079 250.26 230.253 250.743 230.543 251.014C230.853 251.265 231.152 251.401 231.442 251.42L231.326 252C230.843 251.961 230.195 251.942 229.383 251.942C228.591 251.923 227.837 251.913 227.121 251.913C226.251 251.913 225.43 251.923 224.656 251.942C223.883 251.942 223.255 251.961 222.771 252L222.887 251.42C223.815 251.381 224.473 251.217 224.859 250.927C225.265 250.618 225.439 249.97 225.381 248.984L224.685 235.644L225.671 234.6L216.304 247.853ZM219.001 243.648H227.469L227.237 244.228H218.479L219.001 243.648ZM242.556 248.926C242.382 249.622 242.334 250.144 242.411 250.492C242.508 250.84 242.73 251.072 243.078 251.188C243.446 251.304 243.958 251.381 244.615 251.42L244.47 252C244.103 251.981 243.639 251.971 243.078 251.971C242.537 251.952 241.947 251.942 241.309 251.942C240.671 251.923 240.062 251.913 239.482 251.913C238.554 251.913 237.665 251.923 236.814 251.942C235.983 251.942 235.316 251.961 234.813 252L234.958 251.42C235.616 251.381 236.128 251.304 236.495 251.188C236.863 251.072 237.153 250.84 237.365 250.492C237.578 250.144 237.771 249.622 237.945 248.926L239.946 240.98L241.831 242.807L243.832 242.256L244.818 239.936L242.556 248.926ZM251.894 231.613C251.585 231.613 251.295 231.671 251.024 231.787C250.754 231.884 250.464 232.048 250.154 232.28C249.613 232.667 248.956 233.372 248.182 234.397C247.409 235.402 246.626 236.727 245.833 238.37C245.041 239.994 244.306 241.927 243.629 244.17L239.685 244.315C239.608 243.406 239.502 242.449 239.366 241.444C239.231 240.439 239.067 239.453 238.873 238.486C238.68 237.5 238.448 236.611 238.177 235.818C237.926 235.006 237.636 234.368 237.307 233.904C236.979 233.44 236.602 233.208 236.176 233.208C235.828 233.208 235.548 233.343 235.335 233.614C235.123 233.865 234.958 234.184 234.842 234.571L234.233 236.398C234.233 236.398 234.127 236.398 233.914 236.398C233.702 236.398 233.595 236.398 233.595 236.398L234.32 234.165C234.707 233.024 235.248 232.222 235.944 231.758C236.66 231.294 237.481 231.062 238.409 231.062C239.724 231.062 240.739 231.468 241.454 232.28C242.17 233.092 242.701 234.271 243.049 235.818C243.397 237.365 243.697 239.23 243.948 241.415C244.606 239.559 245.34 237.916 246.152 236.485C246.964 235.035 247.815 233.827 248.704 232.86C249.149 232.377 249.661 231.961 250.241 231.613C250.821 231.246 251.45 231.062 252.126 231.062C253.016 231.062 253.692 231.313 254.156 231.816C254.62 232.319 254.843 232.918 254.823 233.614C254.804 234.329 254.553 234.938 254.069 235.441C253.586 235.924 252.958 236.166 252.184 236.166C251.546 236.166 251.053 236.002 250.705 235.673C250.357 235.344 250.183 234.919 250.183 234.397C250.203 233.74 250.415 233.179 250.821 232.715C251.247 232.232 251.769 231.903 252.387 231.729C252.329 231.69 252.262 231.661 252.184 231.642C252.107 231.623 252.01 231.613 251.894 231.613ZM266.579 231.584C265.767 231.584 264.975 231.855 264.201 232.396C263.428 232.918 262.703 233.653 262.026 234.6C261.369 235.528 260.789 236.601 260.286 237.819C259.784 239.018 259.387 240.303 259.097 241.676C258.827 243.049 258.691 244.431 258.691 245.823C258.691 247.718 258.981 249.206 259.561 250.289C260.161 251.352 260.915 251.884 261.823 251.884C262.635 251.884 263.428 251.623 264.201 251.101C264.975 250.56 265.69 249.825 266.347 248.897C267.024 247.95 267.614 246.877 268.116 245.678C268.619 244.46 269.006 243.165 269.276 241.792C269.566 240.419 269.711 239.037 269.711 237.645C269.711 235.75 269.412 234.271 268.812 233.208C268.232 232.125 267.488 231.584 266.579 231.584ZM253.703 245.446C253.703 244.17 253.906 242.855 254.312 241.502C254.718 240.149 255.298 238.853 256.052 237.616C256.806 236.379 257.715 235.267 258.778 234.281C259.861 233.295 261.079 232.512 262.432 231.932C263.786 231.352 265.255 231.062 266.84 231.062C269.296 231.062 271.219 231.671 272.611 232.889C274.023 234.088 274.728 235.808 274.728 238.051C274.728 239.327 274.525 240.642 274.119 241.995C273.713 243.329 273.124 244.615 272.35 245.852C271.596 247.089 270.678 248.201 269.595 249.187C268.513 250.173 267.295 250.956 265.941 251.536C264.607 252.116 263.148 252.406 261.562 252.406C259.107 252.406 257.183 251.807 255.791 250.608C254.399 249.39 253.703 247.669 253.703 245.446Z" fill="#E23260"/>
<defs>
<clipPath id="clip0_121_65">
<rect width="275" height="204" fill="white" transform="translate(4)"/>
</clipPath>
</defs>
</svg>
